<svg xmlns="http://www.w3.org/2000/svg" viewBox="-125 -125 250 250"><title>Faceted five-pointed star</title><desc>Mathematical approximation: eight rotated Bezier petals surrounding a faceted five-pointed star. Transparent background.</desc><defs><linearGradient id="gold" x1="0" y1="0" x2="1" y2="1"><stop stop-color="#fff2bd"/><stop offset=".45" stop-color="#e7bd76"/><stop offset="1" stop-color="#9d6037"/></linearGradient><radialGradient id="disc" cx=".35" cy=".25" r=".8"><stop stop-color="#fff0bb"/><stop offset=".7" stop-color="#d8a265"/><stop offset="1" stop-color="#a86e42"/></radialGradient></defs><polygon points="0.0,-113.0 28.214,-38.833 107.469,-34.919 45.651,14.833 66.42,91.419 0.0,48.0 -66.42,91.419 -45.651,14.833 -107.469,-34.919 -28.214,-38.833" fill="url(#gold)" stroke="#996237" stroke-width="2" stroke-linejoin="round"/><path d="M0 0 L0.0 -113.0 L28.214 -38.833 Z" fill="#fff0b2" fill-opacity=".65"/><path d="M0 0 L28.214 -38.833 L107.469 -34.919 Z" fill="#b87b40" fill-opacity=".65"/><path d="M0 0 L107.469 -34.919 L45.651 14.833 Z" fill="#fff0b2" fill-opacity=".65"/><path d="M0 0 L45.651 14.833 L66.42 91.419 Z" fill="#b87b40" fill-opacity=".65"/><path d="M0 0 L66.42 91.419 L0.0 48.0 Z" fill="#fff0b2" fill-opacity=".65"/><path d="M0 0 L0.0 48.0 L-66.42 91.419 Z" fill="#b87b40" fill-opacity=".65"/><path d="M0 0 L-66.42 91.419 L-45.651 14.833 Z" fill="#fff0b2" fill-opacity=".65"/><path d="M0 0 L-45.651 14.833 L-107.469 -34.919 Z" fill="#b87b40" fill-opacity=".65"/><path d="M0 0 L-107.469 -34.919 L-28.214 -38.833 Z" fill="#fff0b2" fill-opacity=".65"/><path d="M0 0 L-28.214 -38.833 L0.0 -113.0 Z" fill="#b87b40" fill-opacity=".65"/></svg>